<?xml version="1.0" encoding="UTF-8"?>
<svg id="Layer_2" data-name="Layer 2" xmlns="http://www.w3.org/2000/svg" viewBox="0 0 129.61 78.65">
  <defs>
    <style>
      .cls-1 {
        fill: #fff;
      }
    </style>
  </defs>
  <g id="Layer_1-2" data-name="Layer 1">
    <g>
      <path class="cls-1" d="M18.88,39.14c-2.58,0-5.02-.5-7.31-1.51-2.3-1-4.3-2.39-6.02-4.17-1.72-1.77-3.08-3.84-4.06-6.19-.99-2.35-1.48-4.87-1.48-7.56s.49-5.2,1.48-7.53c.99-2.33,2.35-4.38,4.09-6.16,1.74-1.77,3.78-3.15,6.13-4.14,2.35-.99,4.89-1.48,7.61-1.48,2.98,0,5.74,.57,8.28,1.72,2.55,1.15,4.68,2.78,6.4,4.89l-4.2,4.19c-1.11-1.58-2.6-2.79-4.46-3.63-1.86-.84-3.87-1.26-6.02-1.26-2.58,0-4.85,.56-6.8,1.69-1.95,1.13-3.47,2.7-4.54,4.71-1.08,2.01-1.61,4.34-1.61,6.99s.55,4.99,1.64,7.02c1.09,2.03,2.57,3.61,4.44,4.76,1.86,1.15,3.98,1.72,6.35,1.72,2.51,0,4.67-.46,6.48-1.37,1.81-.91,3.2-2.28,4.17-4.09,.97-1.81,1.45-4.04,1.45-6.7l3.87,2.8H14.3l-.02-5.65h22.98v.86c0,4.48-.8,8.21-2.39,11.19-1.6,2.98-3.77,5.2-6.53,6.67-2.76,1.47-5.92,2.21-9.47,2.21Z"/>
      <path class="cls-1" d="M81.16,35.15V9.33h5.92v25.82h-5.92Zm5.92-14.36l-2.04-1.02c0-3.26,.73-5.91,2.18-7.93,1.45-2.02,3.65-3.04,6.59-3.04,1.29,0,2.46,.23,3.5,.7,1.04,.47,2.01,1.22,2.9,2.26l-3.87,3.98c-.47-.5-.99-.86-1.56-1.08-.57-.22-1.24-.32-1.99-.32-1.65,0-3.01,.52-4.09,1.56-1.08,1.04-1.61,2.67-1.61,4.89Z"/>
      <path class="cls-1" d="M115.79,35.69c-2.33,0-4.44-.59-6.32-1.77-1.88-1.18-3.37-2.79-4.46-4.81-1.09-2.02-1.64-4.29-1.64-6.8s.55-4.83,1.64-6.86c1.09-2.02,2.58-3.64,4.46-4.84,1.88-1.2,3.99-1.8,6.32-1.8,1.97,0,3.72,.42,5.24,1.26,1.52,.84,2.73,2,3.63,3.47,.9,1.47,1.34,3.14,1.34,5v7.42c0,1.86-.44,3.53-1.32,5-.88,1.47-2.09,2.63-3.63,3.47-1.54,.84-3.3,1.26-5.27,1.26Zm.97-5.59c2.19,0,3.95-.73,5.3-2.21,1.34-1.47,2.02-3.35,2.02-5.65,0-1.54-.3-2.9-.91-4.09-.61-1.18-1.46-2.11-2.55-2.77-1.09-.66-2.38-.99-3.85-.99s-2.7,.33-3.79,.99c-1.09,.66-1.95,1.59-2.58,2.77-.63,1.18-.94,2.55-.94,4.09s.31,2.9,.94,4.09c.63,1.18,1.49,2.11,2.58,2.77,1.09,.66,2.36,1,3.79,1Zm6.94,5.06v-6.94l1.02-6.29-1.02-6.24v-6.35h5.92v25.82h-5.92Z"/>
      <path class="cls-1" d="M8.26,78.38v-25.82h5.92v25.82h-5.92Zm17.69,0v-14.9c0-1.72-.55-3.14-1.64-4.25s-2.5-1.67-4.22-1.67c-1.15,0-2.17,.25-3.07,.75-.9,.5-1.6,1.2-2.1,2.1-.5,.9-.75,1.92-.75,3.07l-2.31-1.29c0-1.97,.43-3.72,1.29-5.24,.86-1.52,2.05-2.72,3.58-3.6,1.52-.88,3.24-1.32,5.14-1.32s3.66,.49,5.16,1.48c1.51,.99,2.69,2.26,3.55,3.82,.86,1.56,1.29,3.18,1.29,4.87v16.19h-5.92Z"/>
      <path class="cls-1" d="M52.41,78.65c-2.51,0-4.79-.6-6.83-1.8-2.04-1.2-3.67-2.82-4.87-4.87-1.2-2.04-1.8-4.32-1.8-6.83s.6-4.77,1.8-6.78c1.2-2.01,2.82-3.61,4.87-4.81,2.04-1.2,4.32-1.8,6.83-1.8s4.84,.59,6.88,1.77c2.04,1.18,3.67,2.79,4.87,4.81,1.2,2.03,1.8,4.29,1.8,6.8s-.6,4.79-1.8,6.83c-1.2,2.04-2.82,3.67-4.87,4.87-2.04,1.2-4.34,1.8-6.88,1.8Zm0-5.7c1.47,0,2.77-.33,3.9-.99,1.13-.66,2.01-1.59,2.64-2.77,.63-1.18,.94-2.53,.94-4.03s-.32-2.83-.97-3.98c-.64-1.15-1.52-2.05-2.63-2.72-1.11-.66-2.4-.99-3.87-.99s-2.72,.33-3.85,.99c-1.13,.66-2.01,1.57-2.64,2.72-.63,1.15-.94,2.47-.94,3.98s.31,2.85,.94,4.03c.63,1.18,1.51,2.11,2.64,2.77,1.13,.66,2.41,.99,3.85,.99Z"/>
      <path class="cls-1" d="M80.43,78.38l-10.38-25.82h6.13l6.99,18.77-1.83,.05,6.83-18.82h3.44l6.83,18.82-1.83-.05,6.99-18.77h6.13l-10.38,25.82h-3.44l-6.99-17.86h1.94l-6.99,17.86h-3.44Z"/>
      <path class="cls-1" d="M62.92,16.46h-3.92v-4.68c.37-.03,.7-.07,1.03-.07,3.98,0,7.97,0,11.95,0,2.21,0,3.36,1.39,2.96,3.55-.96,5.18-1.91,10.37-2.89,15.55-.6,3.18-2.64,4.87-5.88,4.88-4.86,.01-9.71,.01-14.57,0-3.03,0-5.09-1.7-5.67-4.69-.99-5.14-1.96-10.28-2.9-15.42-.48-2.64,.58-3.85,3.29-3.85,1.21,0,2.42,0,3.83,0,0-1.06-.02-2.02,0-2.99,.09-4.21,2.99-7.73,7.01-8.54,4.09-.82,8.17,1.22,9.82,5.04,.51,1.19,.68,2.52,1.04,3.94h-4.96c-.06-.38-.12-.78-.2-1.18-.42-1.94-2.18-3.27-4.16-3.15-1.95,.13-3.62,1.59-3.68,3.53-.1,3.68-.11,7.36-.02,11.04,.05,2.06,1.8,3.6,3.81,3.67,1.99,.07,3.8-1.37,4.07-3.39,.13-1,.02-2.03,.02-3.22Z"/>
    </g>
  </g>
</svg>