<?xml version="1.0" encoding="UTF-8"?>
<svg id="Layer_2" data-name="Layer 2" xmlns="http://www.w3.org/2000/svg" viewBox="0 0 71.04 89.28">
  <defs>
    <style>
      .cls-1 {
        fill: #e43225;
      }

      .cls-2 {
        fill: #f7971d;
      }
    </style>
  </defs>
  <g id="Layer_1-2" data-name="Layer 1">
    <g>
      <path class="cls-1" d="M10.97,24.88c-.85-4.56-.44-9.39,1.2-14.48,.26-.82,.55-1.61,.86-2.38C19.15,3.01,26.99,0,35.52,0c16.23,0,29.91,10.88,34.15,25.74L36.72,15.13l-3.49,10.83,23.03,7.42c-1.34,2.66-2.94,4.9-4.81,6.7-2.98,2.87-6.49,4.63-10.52,5.26-4.04,.63-8.47,.17-13.28-1.38-4.54-1.47-8.24-3.87-11.11-7.23-2.87-3.35-4.72-7.31-5.57-11.86Z"/>
      <path class="cls-1" d="M71.04,35.52c0,19.62-15.9,35.52-35.52,35.52S0,55.14,0,35.52c0-1.3,.07-2.59,.21-3.86,.54,1.57,1.18,3.1,1.92,4.6,2.2,4.47,5.19,8.38,8.98,11.72,3.78,3.35,8.14,5.81,13.09,7.41,6.81,2.2,13.32,2.74,19.52,1.62,6.2-1.11,11.75-4.03,16.65-8.76,4.29-4.13,7.77-9.76,10.43-16.87,.16,1.36,.24,2.74,.24,4.14Z"/>
      <circle class="cls-2" cx="22.89" cy="83.48" r="5.8"/>
      <circle class="cls-2" cx="53.1" cy="83.48" r="5.8"/>
    </g>
  </g>
</svg>