<?xml version="1.0" encoding="UTF-8"?>
<svg id="Layer_2" data-name="Layer 2" xmlns="http://www.w3.org/2000/svg" viewBox="0 0 206.32 78.63">
  <defs>
    <style>
      .cls-1 {
        fill: #fff;
      }

      .cls-2 {
        fill: #e43225;
      }

      .cls-3 {
        fill: #f7971d;
      }
    </style>
  </defs>
  <g id="Layer_1-2" data-name="Layer 1">
    <g>
      <path class="cls-2" d="M9.66,21.92c-.75-4.02-.39-8.27,1.05-12.75,.23-.72,.48-1.42,.76-2.1C16.87,2.65,23.77,0,31.29,0c14.29,0,26.35,9.58,30.08,22.67l-29.03-9.35-3.08,9.54,20.28,6.54c-1.18,2.35-2.59,4.32-4.23,5.91-2.62,2.53-5.72,4.07-9.27,4.64-3.56,.55-7.46,.15-11.7-1.21-3.99-1.29-7.26-3.41-9.78-6.37-2.53-2.95-4.16-6.44-4.91-10.45Z"/>
      <path class="cls-2" d="M62.57,31.29c0,17.28-14.01,31.29-31.29,31.29S0,48.57,0,31.29c0-1.15,.06-2.28,.18-3.4,.48,1.39,1.04,2.73,1.69,4.05,1.94,3.94,4.57,7.38,7.91,10.32,3.33,2.95,7.17,5.12,11.53,6.52,6,1.93,11.73,2.41,17.19,1.43,5.46-.98,10.35-3.55,14.66-7.71,3.78-3.64,6.84-8.59,9.19-14.85,.14,1.2,.21,2.41,.21,3.65Z"/>
      <circle class="cls-3" cx="20.16" cy="73.53" r="5.11"/>
      <circle class="cls-3" cx="46.77" cy="73.53" r="5.11"/>
      <g>
        <path class="cls-1" d="M102.52,36.69c-2.42,0-4.71-.47-6.86-1.41-2.15-.94-4.03-2.24-5.65-3.91-1.61-1.66-2.88-3.6-3.81-5.8-.93-2.2-1.39-4.56-1.39-7.08s.46-4.87,1.39-7.06c.92-2.18,2.2-4.11,3.83-5.77,1.63-1.66,3.55-2.96,5.75-3.88,2.2-.92,4.58-1.39,7.13-1.39,2.79,0,5.38,.54,7.76,1.61,2.39,1.08,4.39,2.6,6,4.59l-3.93,3.93c-1.04-1.48-2.44-2.61-4.18-3.4-1.75-.79-3.63-1.18-5.65-1.18-2.42,0-4.55,.53-6.38,1.59s-3.25,2.53-4.26,4.41c-1.01,1.88-1.51,4.07-1.51,6.55s.51,4.68,1.54,6.58c1.02,1.9,2.41,3.39,4.16,4.46,1.75,1.08,3.73,1.61,5.95,1.61,2.35,0,4.38-.43,6.07-1.29,1.7-.86,3-2.13,3.91-3.83,.91-1.7,1.36-3.79,1.36-6.28l3.63,2.62h-19.16l-.02-5.29h21.54v.81c0,4.2-.75,7.7-2.24,10.49-1.5,2.79-3.54,4.87-6.13,6.25-2.59,1.38-5.55,2.07-8.87,2.07Z"/>
        <path class="cls-1" d="M160.9,32.95V8.75h5.54v24.2h-5.54Zm5.54-13.46l-1.92-.96c0-3.06,.68-5.54,2.04-7.44,1.36-1.9,3.42-2.85,6.18-2.85,1.21,0,2.3,.22,3.28,.66,.97,.44,1.88,1.14,2.72,2.12l-3.63,3.73c-.44-.47-.93-.81-1.46-1.01-.54-.2-1.16-.3-1.87-.3-1.55,0-2.82,.49-3.83,1.46-1.01,.98-1.51,2.5-1.51,4.59Z"/>
        <path class="cls-1" d="M193.36,33.45c-2.19,0-4.16-.56-5.92-1.66-1.76-1.11-3.16-2.61-4.18-4.51-1.03-1.9-1.54-4.02-1.54-6.38s.51-4.53,1.54-6.43c1.02-1.9,2.42-3.41,4.18-4.54,1.76-1.13,3.74-1.69,5.92-1.69,1.85,0,3.49,.4,4.91,1.18,1.43,.79,2.56,1.87,3.4,3.25,.84,1.38,1.26,2.94,1.26,4.69v6.96c0,1.75-.41,3.31-1.24,4.69-.82,1.38-1.96,2.46-3.4,3.25-1.45,.79-3.09,1.19-4.94,1.19Zm.91-5.24c2.05,0,3.71-.69,4.97-2.07,1.26-1.38,1.89-3.14,1.89-5.29,0-1.44-.29-2.72-.86-3.83-.57-1.11-1.37-1.97-2.39-2.6-1.03-.62-2.23-.93-3.6-.93s-2.53,.31-3.55,.93c-1.03,.62-1.83,1.49-2.42,2.6-.59,1.11-.88,2.39-.88,3.83s.29,2.72,.88,3.83c.59,1.11,1.39,1.97,2.42,2.6,1.03,.62,2.21,.93,3.55,.93Zm6.5,4.74v-6.5l.96-5.9-.96-5.85v-5.95h5.55v24.2h-5.55Z"/>
        <path class="cls-2" d="M92.57,73.47v-24.2h5.54v24.2h-5.54Zm16.59,0v-13.96c0-1.61-.51-2.94-1.54-3.98s-2.34-1.56-3.96-1.56c-1.08,0-2.03,.24-2.87,.71-.84,.47-1.5,1.13-1.97,1.97-.47,.84-.71,1.8-.71,2.87l-2.17-1.21c0-1.85,.4-3.49,1.21-4.92,.81-1.43,1.92-2.55,3.35-3.38,1.43-.82,3.03-1.24,4.81-1.24s3.43,.46,4.84,1.39c1.41,.93,2.52,2.12,3.33,3.58,.81,1.46,1.21,2.98,1.21,4.56v15.17h-5.54Z"/>
        <path class="cls-2" d="M133.96,73.72c-2.35,0-4.49-.56-6.4-1.69-1.92-1.13-3.44-2.65-4.56-4.56-1.13-1.92-1.69-4.05-1.69-6.4s.56-4.47,1.69-6.35c1.13-1.88,2.65-3.39,4.56-4.51,1.92-1.13,4.05-1.69,6.4-1.69s4.54,.56,6.45,1.66c1.92,1.11,3.44,2.61,4.56,4.51,1.13,1.9,1.69,4.03,1.69,6.38s-.56,4.49-1.69,6.4c-1.13,1.92-2.65,3.44-4.56,4.56-1.92,1.13-4.07,1.69-6.45,1.69Zm0-5.34c1.38,0,2.6-.31,3.65-.93,1.06-.62,1.88-1.49,2.47-2.6,.59-1.11,.88-2.37,.88-3.78s-.3-2.65-.91-3.73c-.6-1.08-1.43-1.92-2.47-2.55-1.04-.62-2.25-.93-3.63-.93s-2.55,.31-3.6,.93c-1.06,.62-1.88,1.47-2.47,2.55-.59,1.08-.88,2.32-.88,3.73s.29,2.67,.88,3.78c.59,1.11,1.41,1.97,2.47,2.6,1.06,.62,2.26,.93,3.6,.93Z"/>
        <path class="cls-2" d="M160.22,73.47l-9.73-24.2h5.75l6.55,17.59-1.71,.05,6.4-17.64h3.23l6.4,17.64-1.71-.05,6.55-17.59h5.75l-9.73,24.2h-3.23l-6.55-16.74h1.82l-6.55,16.74h-3.23Z"/>
        <path class="cls-1" d="M143.8,15.43h-3.67v-4.38c.35-.03,.65-.07,.96-.07,3.73,0,7.47,0,11.2,0,2.07,0,3.15,1.3,2.78,3.32-.9,4.86-1.79,9.72-2.71,14.57-.56,2.98-2.47,4.56-5.51,4.57-4.55,.01-9.1,.01-13.66,0-2.84,0-4.77-1.59-5.32-4.4-.93-4.81-1.84-9.63-2.72-14.46-.45-2.48,.54-3.61,3.08-3.61,1.13,0,2.26,0,3.59,0,0-.99-.02-1.9,0-2.8,.09-3.95,2.8-7.25,6.57-8,3.83-.77,7.65,1.14,9.2,4.72,.48,1.11,.64,2.37,.98,3.7h-4.64c-.06-.36-.11-.74-.19-1.11-.39-1.82-2.04-3.07-3.9-2.95-1.83,.12-3.4,1.49-3.45,3.31-.1,3.45-.11,6.9-.02,10.34,.05,1.93,1.68,3.37,3.57,3.44,1.87,.07,3.57-1.29,3.82-3.18,.13-.93,.02-1.9,.02-3.02Z"/>
      </g>
    </g>
  </g>
</svg>