<?xml version="1.0" encoding="UTF-8"?>
<svg id="Layer_2" data-name="Layer 2" xmlns="http://www.w3.org/2000/svg" viewBox="0 0 66.76 85.02">
  <g id="Layer_1-2" data-name="Layer 1">
    <g>
      <path d="M10.31,23.38c-.79-4.29-.41-8.82,1.12-13.61,.25-.77,.52-1.51,.81-2.24C18,2.82,25.36,0,33.38,0c15.25,0,28.11,10.22,32.09,24.19l-30.97-9.97-3.28,10.17,21.64,6.98c-1.26,2.5-2.77,4.61-4.52,6.3-2.8,2.7-6.1,4.35-9.89,4.95-3.8,.59-7.96,.16-12.48-1.29-4.26-1.38-7.75-3.64-10.44-6.79-2.7-3.15-4.44-6.87-5.23-11.15Z"/>
      <path d="M66.76,33.38c0,18.44-14.94,33.38-33.38,33.38S0,51.81,0,33.38c0-1.23,.07-2.44,.19-3.63,.51,1.48,1.11,2.92,1.8,4.32,2.07,4.2,4.88,7.87,8.44,11.01,3.55,3.15,7.65,5.46,12.3,6.96,6.4,2.06,12.52,2.57,18.34,1.52,5.83-1.04,11.04-3.79,15.64-8.23,4.03-3.88,7.3-9.17,9.8-15.85,.15,1.28,.23,2.57,.23,3.89Z"/>
      <circle cx="18.12" cy="79.57" r="5.45"/>
      <circle cx="46.5" cy="79.57" r="5.45"/>
    </g>
  </g>
</svg>