<?xml version="1.0" encoding="UTF-8"?>
<svg id="Layer_2" data-name="Layer 2" xmlns="http://www.w3.org/2000/svg" viewBox="0 0 234.25 89.28">
  <defs>
    <style>
      .cls-1 {
        fill: #e43225;
      }

      .cls-2 {
        fill: #f7971d;
      }

      .cls-3 {
        fill: #0064d2;
      }
    </style>
  </defs>
  <g id="Layer_1-2" data-name="Layer 1">
    <g>
      <path class="cls-1" d="M10.97,24.88c-.85-4.56-.44-9.39,1.2-14.48,.26-.82,.55-1.61,.86-2.38C19.15,3.01,26.99,0,35.52,0c16.23,0,29.91,10.88,34.15,25.74L36.72,15.13l-3.49,10.83,23.03,7.42c-1.34,2.66-2.94,4.9-4.81,6.7-2.98,2.87-6.49,4.63-10.52,5.26-4.04,.63-8.47,.17-13.28-1.38-4.54-1.47-8.24-3.87-11.11-7.23-2.87-3.35-4.72-7.31-5.57-11.86Z"/>
      <path class="cls-1" d="M71.04,35.52c0,19.62-15.9,35.52-35.52,35.52S0,55.14,0,35.52c0-1.3,.07-2.59,.21-3.86,.54,1.57,1.18,3.1,1.92,4.6,2.2,4.47,5.19,8.38,8.98,11.72,3.78,3.35,8.14,5.81,13.09,7.41,6.81,2.2,13.32,2.74,19.52,1.62,6.2-1.11,11.75-4.03,16.65-8.76,4.29-4.13,7.77-9.76,10.43-16.87,.16,1.36,.24,2.74,.24,4.14Z"/>
      <circle class="cls-2" cx="22.89" cy="83.48" r="5.8"/>
      <circle class="cls-2" cx="53.1" cy="83.48" r="5.8"/>
      <g>
        <path class="cls-3" d="M116.4,41.66c-2.75,0-5.34-.54-7.78-1.6-2.44-1.07-4.58-2.55-6.41-4.44-1.83-1.89-3.27-4.08-4.32-6.58-1.05-2.5-1.57-5.18-1.57-8.04s.52-5.53,1.57-8.01c1.05-2.48,2.5-4.66,4.35-6.55,1.85-1.89,4.03-3.36,6.53-4.41,2.5-1.05,5.2-1.57,8.1-1.57,3.17,0,6.11,.61,8.81,1.83,2.71,1.22,4.98,2.96,6.81,5.21l-4.47,4.46c-1.18-1.68-2.77-2.97-4.75-3.86-1.98-.9-4.12-1.35-6.41-1.35-2.75,0-5.16,.6-7.24,1.8-2.08,1.2-3.69,2.87-4.84,5.01-1.14,2.14-1.72,4.62-1.72,7.44s.58,5.31,1.75,7.47c1.16,2.16,2.74,3.84,4.72,5.07,1.98,1.22,4.24,1.83,6.75,1.83,2.67,0,4.97-.49,6.9-1.46,1.93-.97,3.41-2.42,4.44-4.35,1.03-1.93,1.55-4.3,1.55-7.13l4.12,2.98h-21.75l-.02-6.01h24.46v.92c0,4.77-.85,8.74-2.55,11.91-1.7,3.17-4.02,5.53-6.95,7.1-2.94,1.57-6.3,2.35-10.07,2.35Z"/>
        <path class="cls-3" d="M182.68,37.41V9.93h6.3v27.47h-6.3Zm6.3-15.28l-2.17-1.09c0-3.47,.77-6.29,2.32-8.44,1.55-2.16,3.88-3.23,7.01-3.23,1.37,0,2.61,.25,3.72,.74,1.11,.5,2.14,1.3,3.09,2.4l-4.12,4.24c-.5-.53-1.05-.92-1.66-1.14-.61-.23-1.32-.34-2.12-.34-1.76,0-3.2,.55-4.35,1.66-1.14,1.11-1.72,2.84-1.72,5.21Z"/>
        <path class="cls-3" d="M219.54,37.98c-2.48,0-4.72-.63-6.73-1.89-2-1.26-3.59-2.97-4.75-5.12-1.16-2.16-1.75-4.57-1.75-7.24s.58-5.14,1.75-7.3c1.16-2.16,2.75-3.87,4.75-5.15,2-1.28,4.24-1.92,6.73-1.92,2.1,0,3.96,.45,5.58,1.35,1.62,.9,2.91,2.13,3.86,3.69,.95,1.56,1.43,3.34,1.43,5.32v7.9c0,1.98-.47,3.76-1.4,5.32-.94,1.56-2.22,2.79-3.86,3.69-1.64,.9-3.51,1.35-5.61,1.35Zm1.03-5.95c2.33,0,4.21-.78,5.64-2.35,1.43-1.56,2.15-3.57,2.15-6.01,0-1.64-.32-3.09-.97-4.35-.65-1.26-1.56-2.24-2.72-2.95-1.16-.71-2.53-1.06-4.09-1.06s-2.87,.35-4.04,1.06c-1.16,.71-2.08,1.69-2.75,2.95-.67,1.26-1,2.71-1,4.35s.33,3.09,1,4.35c.67,1.26,1.58,2.24,2.75,2.95,1.16,.71,2.51,1.06,4.04,1.06Zm7.38,5.38v-7.38l1.09-6.7-1.09-6.64v-6.75h6.3v27.47h-6.3Z"/>
        <path class="cls-1" d="M105.1,83.41v-27.47h6.3v27.47h-6.3Zm18.83,0v-15.85c0-1.83-.58-3.34-1.75-4.52s-2.66-1.77-4.49-1.77c-1.22,0-2.31,.27-3.26,.8-.95,.53-1.7,1.28-2.23,2.23-.53,.95-.8,2.04-.8,3.26l-2.46-1.37c0-2.1,.46-3.96,1.37-5.58,.92-1.62,2.18-2.9,3.81-3.83,1.62-.93,3.44-1.4,5.47-1.4s3.89,.53,5.5,1.57c1.6,1.05,2.86,2.4,3.78,4.06,.92,1.66,1.37,3.39,1.37,5.18v17.23h-6.3Z"/>
        <path class="cls-1" d="M152.09,83.7c-2.67,0-5.09-.64-7.27-1.92-2.18-1.28-3.9-3.01-5.18-5.18-1.28-2.17-1.92-4.6-1.92-7.27s.64-5.07,1.92-7.21c1.28-2.14,3.01-3.84,5.18-5.12,2.17-1.28,4.6-1.92,7.27-1.92s5.15,.63,7.33,1.89c2.18,1.26,3.9,2.97,5.18,5.12,1.28,2.16,1.92,4.57,1.92,7.24s-.64,5.09-1.92,7.27c-1.28,2.18-3.01,3.9-5.18,5.18-2.17,1.28-4.62,1.92-7.33,1.92Zm0-6.07c1.56,0,2.95-.35,4.15-1.06,1.2-.71,2.14-1.69,2.8-2.95,.67-1.26,1-2.69,1-4.29s-.34-3.01-1.03-4.24c-.69-1.22-1.62-2.18-2.8-2.89-1.18-.71-2.56-1.06-4.12-1.06s-2.89,.35-4.09,1.06c-1.2,.71-2.14,1.67-2.8,2.89-.67,1.22-1,2.63-1,4.24s.33,3.03,1,4.29c.67,1.26,1.6,2.24,2.8,2.95,1.2,.71,2.57,1.06,4.09,1.06Z"/>
        <path class="cls-1" d="M181.91,83.41l-11.05-27.47h6.52l7.44,19.98-1.95,.06,7.27-20.03h3.66l7.27,20.03-1.95-.06,7.44-19.98h6.53l-11.05,27.47h-3.66l-7.44-19h2.06l-7.44,19h-3.66Z"/>
        <path class="cls-3" d="M163.27,17.52h-4.17v-4.98c.39-.03,.74-.08,1.09-.08,4.24,0,8.48-.01,12.72,0,2.35,0,3.58,1.48,3.15,3.77-1.02,5.52-2.03,11.03-3.07,16.54-.64,3.39-2.81,5.18-6.26,5.19-5.17,.01-10.34,.01-15.5,0-3.22,0-5.42-1.8-6.04-5-1.06-5.47-2.09-10.94-3.09-16.42-.51-2.81,.62-4.1,3.5-4.1,1.29,0,2.57,0,4.07,0,0-1.12-.02-2.15,0-3.18,.1-4.48,3.18-8.23,7.46-9.08,4.35-.87,8.69,1.3,10.45,5.36,.55,1.26,.72,2.69,1.11,4.2h-5.27c-.07-.41-.12-.84-.21-1.26-.44-2.07-2.32-3.48-4.43-3.35-2.08,.13-3.86,1.69-3.92,3.76-.11,3.91-.12,7.83-.02,11.74,.06,2.19,1.91,3.83,4.05,3.91,2.12,.08,4.05-1.46,4.34-3.61,.14-1.06,.02-2.16,.02-3.43Z"/>
      </g>
    </g>
  </g>
</svg>